<svg width="22" height="22" viewBox="0 0 22 22" fill="none" xmlns="http://www.w3.org/2000/svg">
<path d="M9.25 14.5C6.3555 14.5 4 12.1451 4 9.25C4 6.3555 6.3555 4 9.25 4C12.1451 4 14.5 6.3555 14.5 9.25C14.5 12.1451 12.1451 14.5 9.25 14.5ZM9.25 5.16667C6.99833 5.16667 5.16667 6.99833 5.16667 9.25C5.16667 11.5017 6.99833 13.3333 9.25 13.3333C11.5017 13.3333 13.3333 11.5017 13.3333 9.25C13.3333 6.99833 11.5017 5.16667 9.25 5.16667ZM17.4167 18C17.2673 18 17.118 17.9428 17.0042 17.8291L12.3376 13.1624C12.1095 12.9343 12.1095 12.5657 12.3376 12.3376C12.5657 12.1095 12.9343 12.1095 13.1624 12.3376L17.8291 17.0042C18.0572 17.2323 18.0572 17.601 17.8291 17.8291C17.7153 17.9428 17.566 18 17.4167 18Z" fill="white"/>
</svg>
